<svg width="29" height="29" viewBox="0 0 29 29" fill="none" xmlns="http://www.w3.org/2000/svg">
<g id="&#240;&#159;&#166;&#134; icon &#34;globe&#34;" style="mix-blend-mode:soft-light">
<path id="Vector" d="M14.5 0C6.48875 0 0 6.48875 0 14.5C0 22.5112 6.48875 29 14.5 29C22.5112 29 29 22.5112 29 14.5C29 6.48875 22.5112 0 14.5 0ZM14.5 3.625C15.6962 3.625 16.82 3.95125 17.9075 4.31375C17.1462 5.03875 16.2763 5.69125 16.4213 6.34375C16.5662 6.99625 18.9225 6.815 18.9225 8.15625C18.9225 9.135 17.4 9.425 18.4513 10.5487C19.72 11.8175 16.1312 14.1012 16.0588 15.7687C15.95 18.7775 19.1038 19.285 21.605 19.285C23.1275 19.285 23.5263 20.01 23.4175 20.88C21.46 23.6713 18.125 25.4113 14.4637 25.4113C13.0863 25.4113 11.8175 25.085 10.6213 24.6138C11.4187 23.0187 9.60625 19.865 7.9025 18.85C7.06875 18.0162 5.2925 18.3425 4.2775 17.9437C3.95125 16.965 3.625 15.9863 3.58875 14.8988C3.6975 14.7175 3.87875 14.5725 4.16875 14.5725C4.8575 14.5725 5.8 15.95 6.3075 15.805C6.96 15.66 3.625 11.0562 5.18375 10.15C5.90875 9.715 7.35875 11.5638 6.8875 9.57C6.4525 7.72125 8.1925 8.555 9.28 8.08375C10.2225 7.685 10.9113 6.5975 9.75125 5.945C9.53375 5.83625 9.28 5.5825 8.95375 5.25625C10.585 4.2775 12.47 3.66125 14.5 3.66125V3.625ZM22.8738 7.57625C23.5262 8.37375 24.0338 9.24375 24.4688 10.1862V10.295C24.3237 10.5487 24.07 10.6937 23.6713 11.0925C22.6562 12.1075 22.5113 10.3313 22.0763 9.96875C21.605 9.53375 19.9012 10.0412 19.6838 9.4975C19.43 8.845 21.4963 7.975 22.8738 7.57625Z" fill="black"/>
</g>
</svg>
